<?xml version="1.0" standalone="no"?>
<!DOCTYPE svg PUBLIC "-//W3C//DTD SVG 20010904//EN"
 "http://www.w3.org/TR/2001/REC-SVG-20010904/DTD/svg10.dtd">
<svg version="1.0" xmlns="http://www.w3.org/2000/svg"
 width="1600.000000pt" height="1600.000000pt" viewBox="0 0 1600.000000 1600.000000"
 preserveAspectRatio="xMidYMid meet">

<g transform="translate(0.000000,1600.000000) scale(0.100000,-0.100000)"
fill="#000000" stroke="none">
<path d="M6821 10259 c-49 -6 -92 -21 -160 -53 -23 -11 -63 -84 -82 -151 -8
-28 -7 -29 7 -10 29 39 4 -93 -54 -275 -91 -291 -117 -380 -147 -505 -27 -117
-38 -145 -51 -133 -3 3 2 20 11 38 9 18 15 33 13 35 -17 17 -488 -532 -488
-569 0 -3 212 -5 471 -4 l471 3 19 50 c22 57 24 79 7 69 -7 -4 -8 -3 -4 5 4 6
12 9 17 6 5 -4 9 2 9 12 0 10 12 45 26 78 14 33 27 71 29 85 4 29 32 114 48
149 7 13 49 65 94 115 45 50 81 95 80 100 -1 5 7 12 18 14 25 5 65 41 65 59 0
7 4 13 9 13 5 0 13 9 16 20 3 11 16 25 27 31 18 9 20 9 15 -4 -12 -31 20 -6
36 28 9 19 23 35 30 35 8 0 22 9 31 19 19 21 56 34 56 20 0 -6 17 6 37 26 20
20 43 33 50 31 7 -3 13 -1 13 5 0 6 4 8 9 4 5 -3 12 -1 16 5 3 5 17 10 30 10
14 0 26 7 30 19 11 37 93 73 118 52 10 -7 24 -8 48 -1 19 6 50 11 69 12 19 0
42 4 51 9 9 5 21 3 27 -3 8 -8 15 -9 22 -2 17 17 167 6 216 -15 153 -68 130
-344 -73 -861 -25 -63 -54 -132 -64 -152 -11 -21 -19 -40 -19 -43 0 -3 115 -5
255 -4 l255 1 16 30 c9 17 31 74 50 127 19 53 39 105 44 116 40 88 47 597 8
621 -6 4 -8 25 -4 54 7 55 -10 104 -48 137 -14 13 -26 20 -26 15 0 -4 -18 26
-40 67 -21 41 -50 86 -64 100 -39 41 -199 140 -279 174 -66 27 -85 30 -212 34
-103 3 -161 0 -220 -12 -44 -8 -93 -17 -110 -20 -38 -5 -142 -32 -155 -40 -11
-7 -170 -54 -182 -55 -5 0 -8 9 -8 20 0 41 -42 130 -80 168 -73 72 -245 112
-399 91z m889 -529 c0 -5 -5 -10 -11 -10 -5 0 -7 5 -4 10 3 6 8 10 11 10 2 0
4 -4 4 -10z m-104 -37 c-10 -10 -19 5 -10 18 6 11 8 11 12 0 2 -7 1 -15 -2
-18z m-496 -418 c-7 -9 -15 -13 -17 -11 -7 7 7 26 19 26 6 0 6 -6 -2 -15z"/>
<path d="M10060 10020 c-19 -3 -52 -14 -72 -23 -22 -10 -62 -17 -97 -17 -33 0
-71 -4 -85 -10 -17 -6 -35 -6 -52 0 -19 8 -31 6 -47 -5 -12 -8 -29 -15 -39
-15 -10 0 -18 -4 -18 -10 0 -5 5 -10 10 -10 6 0 10 -4 10 -10 0 -5 -11 -10
-25 -10 -14 0 -25 5 -25 10 0 18 -28 10 -33 -9 -6 -26 -47 -17 -47 11 0 15 -4
18 -22 12 -13 -4 -33 -17 -45 -30 -12 -13 -27 -24 -33 -24 -5 0 -10 -9 -10
-20 0 -11 -7 -20 -15 -20 -8 0 -12 -6 -9 -14 3 -8 -3 -19 -15 -26 -12 -6 -21
-7 -21 -3 0 4 -5 2 -11 -4 -12 -12 8 -53 27 -53 6 0 24 -10 39 -22 20 -15 30
-18 33 -10 2 7 8 10 13 6 13 -8 11 -24 -4 -24 -7 0 -20 -9 -30 -20 -9 -11 -25
-20 -35 -20 -10 0 -23 -5 -30 -12 -9 -9 -12 -8 -12 5 0 20 -11 22 -29 5 -10
-11 -11 -8 -6 15 6 21 4 27 -9 27 -9 0 -20 -10 -25 -22 -13 -33 -113 -186
-150 -229 -55 -65 -111 -184 -134 -290 -11 -51 -24 -78 -60 -122 -65 -80 -116
-176 -149 -280 -15 -50 -28 -97 -28 -104 0 -10 67 -13 335 -13 l334 0 21 43
20 42 -5 -43 c-4 -28 -2 -41 5 -37 5 3 10 12 10 19 0 7 9 25 21 40 11 14 25
43 31 64 6 20 18 48 28 62 10 14 28 53 39 85 12 33 34 79 51 103 29 41 41 80
21 67 -15 -8 -20 8 -10 33 10 26 29 29 29 5 0 -10 25 27 56 82 72 128 127 204
206 285 76 79 107 90 243 90 82 0 103 3 131 21 39 24 50 40 63 97 9 44 -5 137
-28 180 -20 37 -80 100 -118 123 -38 23 -134 38 -193 29z m-510 -152 c13 -10
22 -18 20 -19 -3 0 -16 -2 -29 -5 -22 -4 -61 19 -61 36 0 12 46 5 70 -12z
m-433 -620 c-3 -8 -6 -5 -6 6 -1 11 2 17 5 13 3 -3 4 -12 1 -19z m640 -25 c-9
-9 -20 -13 -24 -9 -4 4 1 14 11 22 25 18 35 8 13 -13z m-137 -183 c-7 -17 -15
-28 -18 -26 -2 3 1 19 8 36 7 17 15 28 18 26 2 -3 -1 -19 -8 -36z m-4 -87
c-11 -11 -19 6 -11 24 8 17 8 17 12 0 3 -10 2 -21 -1 -24z m-55 -65 c-10 -24
-20 -35 -20 -25 -1 24 30 95 36 80 2 -6 -5 -31 -16 -55z m-61 -149 c-7 -11
-14 -19 -16 -16 -7 7 7 37 17 37 6 0 5 -9 -1 -21z m-100 -73 c0 -3 -4 -8 -10
-11 -5 -3 -10 -1 -10 4 0 6 5 11 10 11 6 0 10 -2 10 -4z"/>
<path d="M8983 8140 c-84 -18 -157 -71 -168 -122 -15 -65 56 -149 149 -178 55
-18 192 -15 258 4 110 32 171 101 149 169 -27 80 -120 129 -256 133 -49 2
-109 -1 -132 -6z m233 -69 c23 -11 50 -31 59 -45 15 -22 16 -30 5 -57 -7 -17
-31 -43 -53 -57 -36 -24 -50 -27 -131 -27 -68 0 -99 5 -123 18 -91 49 -98 118
-16 161 77 39 179 42 259 7z"/>
<path d="M5800 7990 l0 -150 226 0 225 0 -3 28 -3 27 -177 3 c-166 2 -177 4
-183 22 -3 11 -3 24 0 30 4 6 74 10 180 10 165 0 174 1 180 20 3 11 3 24 0 30
-4 6 -74 10 -181 10 -147 0 -176 2 -180 15 -4 8 -1 22 6 30 11 13 37 15 180 9
179 -7 188 -5 176 42 l-6 24 -220 0 -220 0 0 -150z"/>
<path d="M6650 7990 l0 -152 178 4 c201 6 248 17 303 74 64 66 40 146 -59 192
-54 25 -67 27 -239 30 l-183 4 0 -152z m353 79 c73 -20 98 -78 53 -124 -33
-33 -83 -44 -211 -46 l-110 -2 -3 92 -3 91 118 0 c65 0 135 -5 156 -11z"/>
<path d="M7554 7990 l1 -150 43 0 42 0 0 150 0 150 -43 0 -43 0 0 -150z"/>
<path d="M8027 8118 c-11 -40 10 -50 92 -46 l76 3 3 -117 3 -118 39 0 40 0 0
115 c0 84 3 116 13 117 6 1 48 2 92 3 l80 0 3 33 3 32 -219 0 c-218 0 -220 0
-225 -22z"/>
<path d="M9770 8007 c0 -75 -3 -142 -6 -151 -5 -13 2 -16 40 -16 l46 0 0 55 0
55 88 0 88 0 48 -55 c46 -53 49 -55 99 -55 l52 0 -57 56 -56 57 41 21 c48 25
65 62 48 104 -22 52 -40 57 -243 60 l-188 4 0 -135z m335 59 c28 -21 12 -44
-37 -51 -24 -3 -81 -5 -128 -3 l-85 3 -3 33 -3 32 118 0 c85 0 125 -4 138 -14z"/>
<path d="M6106 7481 c-9 -14 -27 -192 -20 -202 3 -5 10 -7 15 -4 5 4 9 0 9 -7
0 -7 5 -5 12 6 8 14 8 24 -1 39 -9 13 -9 23 -2 30 7 7 12 2 16 -16 7 -27 4
-69 -14 -172 -15 -86 -22 -180 -25 -335 -3 -134 -16 -233 -42 -321 -8 -27 -16
-125 -20 -237 l-7 -192 -35 -6 c-19 -4 -80 -2 -136 3 -55 5 -102 9 -103 8 -1
-1 9 -18 23 -39 22 -32 23 -37 8 -34 -10 1 -21 16 -25 31 -8 29 -26 57 -38 57
-14 0 -3 -88 16 -130 21 -46 97 -140 114 -140 5 0 9 7 9 15 0 8 -5 15 -10 15
-6 0 -16 12 -22 28 -7 15 -18 35 -26 45 -9 9 -11 17 -6 17 14 0 36 -16 35 -26
-1 -5 2 -9 7 -9 18 -1 52 -27 52 -40 0 -7 5 -17 11 -21 8 -4 9 1 4 16 -5 15
-4 20 4 16 6 -4 11 -4 11 -1 0 10 -20 27 -67 58 -24 15 -43 32 -43 37 0 12 55
-14 65 -30 4 -6 23 -17 43 -26 20 -8 40 -20 44 -27 6 -9 8 -9 8 1 0 10 3 10
15 -2 23 -22 18 -29 -15 -22 -16 3 -30 2 -30 -3 0 -11 70 -20 76 -9 3 4 13 8
22 7 14 0 14 -2 2 -6 -41 -16 -46 -74 -6 -72 17 1 17 2 4 6 -26 7 -22 25 5 21
22 -3 39 -48 18 -48 -6 0 -11 -4 -11 -8 0 -5 27 -9 59 -9 52 0 60 2 70 23 12
28 24 30 45 9 8 -8 17 -15 20 -15 3 0 3 7 0 15 -4 9 0 15 7 16 37 2 65 11 75
24 6 8 14 12 17 8 4 -3 7 -1 7 6 0 7 4 10 9 6 5 -3 12 -1 16 5 3 6 -4 10 -17
11 -13 0 0 6 27 13 33 8 52 8 57 2 4 -6 15 -3 27 9 12 10 31 23 44 29 12 7 23
17 23 24 4 36 4 37 12 26 11 -17 44 -12 50 8 2 10 8 15 13 12 5 -3 9 0 9 5 0
6 6 11 13 11 15 0 40 37 32 49 -3 5 3 7 13 5 10 -3 29 7 47 26 27 28 28 30 7
27 -12 -2 -25 -6 -28 -10 -4 -4 -16 -7 -26 -7 -16 0 -13 6 14 31 18 16 52 44
75 62 23 18 43 36 43 41 0 5 14 22 30 38 17 15 30 35 30 43 0 8 6 12 13 10 7
-3 19 5 27 17 8 12 25 32 38 44 35 34 82 96 82 108 -1 6 -9 2 -18 -9 -30 -33
-62 -59 -62 -48 0 5 16 26 35 46 20 21 32 37 28 37 -4 0 -1 5 7 10 11 7 11 10
2 10 -7 0 -23 -11 -36 -25 -13 -14 -26 -25 -30 -25 -12 0 12 34 58 84 35 37
44 54 40 71 -7 30 18 68 62 95 20 11 32 24 29 30 -6 10 92 120 108 120 4 0 5
-5 1 -12 -4 -7 -3 -8 4 -4 7 4 12 13 12 21 0 8 4 17 10 20 6 3 7 -1 4 -12 -4
-13 -2 -13 8 3 15 24 120 154 124 154 2 0 1 -7 -2 -15 -11 -27 2 -16 36 33 19
26 37 49 42 52 4 3 14 22 22 41 8 20 29 47 47 60 18 13 43 35 57 49 22 22 24
22 19 5 -5 -13 2 -9 20 12 16 18 38 34 51 36 26 4 86 72 77 87 -3 5 1 10 9 10
9 0 16 7 16 15 0 8 4 15 8 15 5 0 14 11 20 25 l12 25 -228 0 c-225 0 -227 0
-241 -22 -8 -13 -50 -81 -94 -151 -71 -116 -255 -378 -449 -641 -88 -120 -274
-332 -317 -364 -46 -33 -47 -26 -23 118 5 30 13 64 17 74 6 13 5 17 -3 12 -8
-5 -10 19 -5 91 4 54 7 117 7 141 0 23 3 42 7 42 3 0 5 77 4 170 -1 94 1 173
6 176 4 2 6 11 3 18 -5 14 0 55 31 241 8 50 14 91 15 93 1 7 -470 1 -474 -7z
m1501 -203 c-3 -8 -6 -5 -6 6 -1 11 2 17 5 13 3 -3 4 -12 1 -19z m-147 -175
c0 -5 -5 -15 -10 -23 -8 -12 -10 -11 -10 8 0 12 5 22 10 22 6 0 10 -3 10 -7z
m-426 -497 c-3 -8 -12 -17 -20 -20 -12 -4 -12 -2 -4 14 12 23 32 27 24 6z
m-977 -378 c-3 -8 -6 -5 -6 6 -1 11 2 17 5 13 3 -3 4 -12 1 -19z m7 -93 c3 -8
1 -15 -4 -15 -6 0 -10 7 -10 15 0 8 2 15 4 15 2 0 6 -7 10 -15z m513 -47 c-3
-8 -6 -5 -6 6 -1 11 2 17 5 13 3 -3 4 -12 1 -19z m-28 -28 c-7 -5 -18 -6 -26
-3 -7 3 -13 0 -13 -7 0 -20 -43 -55 -85 -67 -21 -7 -41 -10 -44 -8 -6 6 16 30
30 31 5 1 14 2 20 3 6 0 8 10 4 24 -5 17 -4 19 4 7 8 -12 13 -12 22 -3 9 9 16
10 26 2 10 -9 13 -8 13 2 0 7 12 23 28 35 22 19 28 20 30 7 2 -9 -2 -19 -9
-23z m-565 -50 c27 0 35 -14 13 -23 -16 -6 -77 21 -77 35 0 5 9 4 19 -2 11 -5
31 -10 45 -10z m626 -7 c-1 -15 -30 -47 -30 -34 0 8 -6 11 -15 7 -9 -3 -15 0
-15 8 0 9 7 12 20 9 11 -3 20 0 20 6 0 6 5 11 10 11 6 0 10 -3 10 -7z m-86
-56 c-4 -24 -10 -30 -32 -35 -38 -8 -57 -6 -54 6 1 6 -4 12 -10 13 -7 0 -2 5
11 10 17 6 27 6 31 -1 4 -6 14 -8 24 -4 12 5 14 10 5 20 -8 10 -6 13 9 11 14
-1 19 -7 16 -20z m-105 -58 c-23 -14 -40 -10 -37 9 4 26 19 32 36 15 13 -13
13 -16 1 -24z"/>
<path d="M8600 7288 c0 -297 28 -539 87 -757 75 -279 172 -428 330 -507 75
-38 82 -39 178 -39 91 0 106 3 168 32 45 21 71 40 74 53 4 15 9 18 18 10 10
-8 17 -5 29 12 9 12 16 19 16 14 0 -10 45 19 90 57 24 21 30 31 21 37 -23 14
4 48 34 43 29 -6 56 13 54 36 -3 29 1 39 15 44 11 4 13 1 9 -11 -4 -12 2 -9
19 8 14 14 28 35 32 48 4 12 15 22 26 22 25 0 30 20 12 48 -9 14 -10 22 -3 22
18 0 26 -4 24 -12 -2 -5 2 -8 8 -8 6 0 9 7 5 15 -3 8 0 18 7 22 7 5 18 18 25
31 11 20 11 27 -2 48 -16 23 -16 23 8 14 21 -7 26 -6 31 10 4 11 11 20 16 20
5 0 9 11 9 25 0 13 9 41 20 60 11 20 18 40 15 45 -2 4 2 13 10 20 12 10 15 10
15 -1 0 -25 20 13 20 39 0 12 4 22 9 22 14 0 24 52 11 60 -9 6 -9 9 -1 15 7 4
9 16 5 27 -3 11 -2 23 3 27 11 7 53 108 53 126 0 19 -30 27 -36 10 -4 -8 -3
-27 1 -43 5 -22 4 -25 -6 -14 -17 16 -29 15 -29 -1 0 -8 -9 -24 -20 -37 l-20
-23 -1 24 c-1 17 -3 19 -6 7 -2 -10 -9 -18 -14 -18 -6 0 -6 -7 0 -18 6 -11 6
-24 0 -33 -7 -11 -9 -9 -9 9 0 21 -19 32 -21 12 -1 -5 -3 -14 -4 -20 -1 -5 -3
-16 -4 -22 -1 -9 -4 -8 -11 2 -8 12 -10 11 -10 -7 0 -13 6 -23 13 -23 8 -1 7
-5 -4 -13 -8 -7 -18 -20 -22 -30 -4 -10 -11 -15 -17 -12 -5 3 -10 2 -10 -4 0
-5 5 -11 12 -13 16 -6 2 -38 -17 -38 -8 0 -15 9 -15 20 0 11 -4 20 -8 20 -15
0 -40 -34 -47 -63 -6 -22 -4 -26 9 -21 9 3 16 11 16 17 0 6 2 8 5 5 3 -2 -3
-22 -14 -43 -16 -34 -19 -36 -24 -15 -4 14 -10 19 -18 14 -9 -5 -10 -2 -6 9 3
10 2 17 -4 17 -5 0 -14 -11 -19 -25 -5 -14 -16 -28 -24 -31 -7 -3 -17 -20 -21
-37 -5 -22 -9 -27 -12 -14 -5 21 -10 21 -29 2 -9 -8 -11 -15 -6 -15 18 0 21
-28 6 -47 -14 -17 -15 -17 -9 4 8 29 -9 37 -39 18 -21 -14 -24 -22 -20 -48 4
-24 3 -28 -4 -17 -6 8 -8 18 -6 22 10 17 -18 7 -58 -19 -24 -16 -57 -29 -77
-29 -20 -1 -43 -5 -52 -8 -10 -4 -23 -1 -32 9 -15 14 -18 14 -37 -5 -13 -13
-19 -28 -16 -37 5 -13 18 -15 73 -10 36 4 76 13 87 21 21 13 22 13 18 -15 -3
-19 -10 -29 -21 -29 -9 0 -22 -5 -28 -11 -6 -6 -41 -13 -77 -14 -57 -3 -68 -1
-77 16 -7 14 -14 17 -26 10 -13 -7 -20 -3 -30 16 -17 33 -10 39 19 19 25 -18
48 -21 48 -6 0 11 -37 37 -60 42 -8 2 -20 14 -27 28 -10 22 -11 23 -12 5 -1
-17 -4 -15 -20 10 -33 56 -65 205 -39 189 8 -5 9 0 5 17 -4 13 -7 32 -7 42 0
10 -4 15 -10 12 -5 -3 -10 -17 -10 -30 0 -13 -4 -26 -9 -29 -14 -9 -23 61 -11
83 5 11 9 30 9 43 -1 17 -3 18 -6 6 -2 -10 -8 -18 -13 -18 -5 0 -11 -15 -13
-32 -3 -29 -4 -27 -5 10 -1 28 -6 41 -14 40 -9 -2 -14 15 -15 57 -3 95 -2 92
-14 72 -6 -10 -8 -26 -4 -35 5 -13 3 -14 -6 -5 -6 6 -13 35 -16 65 -2 29 -6
58 -8 65 -2 7 2 24 10 39 l13 26 4 -23 c3 -23 4 -23 14 -4 18 32 26 75 14 75
-5 0 -10 -7 -10 -15 0 -8 -4 -15 -10 -15 -5 0 -10 6 -10 13 0 6 -3 23 -7 36
-5 21 -3 22 17 16 19 -6 22 -4 17 10 -4 9 -7 33 -7 53 l0 37 -16 -30 c-8 -16
-19 -34 -24 -39 -11 -11 -1 65 11 80 5 5 10 30 13 55 3 24 7 55 8 69 l3 25
-212 3 -213 2 0 -202z m377 45 c-3 -10 -5 -4 -5 12 0 17 2 24 5 18 2 -7 2 -21
0 -30z m-3 -207 c-4 -18 -10 -24 -17 -17 -5 5 -6 22 -3 37 5 18 10 24 17 17 6
-6 7 -22 3 -37z m66 -372 c-12 -41 -30 -52 -30 -18 0 8 4 13 9 10 9 -6 20 24
22 64 1 19 2 21 6 6 3 -10 -1 -38 -7 -62z m947 39 c-3 -10 -5 -4 -5 12 0 17 2
24 5 18 2 -7 2 -21 0 -30z m-67 -24 c0 -5 -4 -9 -10 -9 -5 0 -10 7 -10 16 0 8
5 12 10 9 6 -3 10 -10 10 -16z m-840 -112 c0 -24 -3 -28 -10 -17 -13 20 -13
63 0 55 6 -3 10 -21 10 -38z m850 -27 c0 -5 -5 -10 -11 -10 -5 0 -7 5 -4 10 3
6 8 10 11 10 2 0 4 -4 4 -10z m-120 -20 c0 -5 -5 -10 -11 -10 -5 0 -7 5 -4 10
3 6 8 10 11 10 2 0 4 -4 4 -10z m-725 -10 c3 -5 1 -10 -4 -10 -6 0 -11 5 -11
10 0 6 2 10 4 10 3 0 8 -4 11 -10z m45 -6 c0 -8 -5 -12 -10 -9 -6 4 -8 11 -5
16 9 14 15 11 15 -7z m553 -94 c4 -15 0 -20 -14 -20 -21 0 -22 1 -13 24 8 22
21 20 27 -4z m-123 -10 c0 -12 -50 -53 -56 -47 -4 3 -4 17 0 31 5 20 12 25 31
24 14 -1 25 -5 25 -8z m-410 -26 c0 -14 -3 -14 -15 -4 -8 7 -15 14 -15 16 0 2
7 4 15 4 8 0 15 -7 15 -16z m470 -9 c0 -8 -7 -15 -15 -15 -16 0 -20 12 -8 23
11 12 23 8 23 -8z m-410 -52 c0 -12 -2 -12 -15 1 -8 8 -15 17 -15 20 0 3 7 3
15 0 8 -4 15 -13 15 -21z m510 23 c0 -3 -4 -8 -10 -11 -5 -3 -10 -1 -10 4 0 6
5 11 10 11 6 0 10 -2 10 -4z m-150 -27 c0 -6 -4 -7 -10 -4 -5 3 -10 11 -10 16
0 6 5 7 10 4 6 -3 10 -11 10 -16z m190 -16 c0 -13 -3 -13 -15 -3 -8 7 -12 16
-9 21 8 13 24 1 24 -18z m-600 -49 c0 -8 -4 -12 -10 -9 -5 3 -10 13 -10 21 0
8 5 12 10 9 6 -3 10 -13 10 -21z m120 -10 c0 -8 -4 -12 -10 -9 -5 3 -10 10
-10 16 0 5 5 9 10 9 6 0 10 -7 10 -16z m120 6 c0 -5 -4 -10 -10 -10 -5 0 -10
5 -10 10 0 6 5 10 10 10 6 0 10 -4 10 -10z m210 -54 c0 -3 -4 -8 -10 -11 -5
-3 -10 -1 -10 4 0 6 5 11 10 11 6 0 10 -2 10 -4z m-313 -178 c-3 -7 -5 -2 -5
12 0 14 2 19 5 13 2 -7 2 -19 0 -25z"/>
<path d="M9174 7476 c-3 -8 -4 -87 -2 -175 2 -101 -1 -162 -7 -165 -5 -2 -7
-7 -3 -11 20 -21 27 17 27 153 1 81 4 162 7 180 6 32 -11 47 -22 18z"/>
<path d="M9218 7436 c-5 -27 -8 -58 -8 -70 1 -19 2 -19 11 -3 5 9 9 41 7 70
l-3 52 -7 -49z"/>
<path d="M9107 7363 c-22 -42 -21 -48 4 -24 11 10 19 27 17 38 -3 14 -7 12
-21 -14z"/>
<path d="M9213 7215 c0 -33 2 -45 4 -27 2 18 2 45 0 60 -2 15 -4 0 -4 -33z"/>
<path d="M9080 7190 c0 -5 5 -10 10 -10 6 0 10 5 10 10 0 6 -4 10 -10 10 -5 0
-10 -4 -10 -10z"/>
<path d="M6066 7091 c-4 -53 -9 -118 -13 -146 -5 -44 -4 -48 10 -37 11 9 14
23 10 46 -3 18 2 58 10 87 8 30 18 73 21 95 5 35 3 42 -13 47 -17 4 -19 -4
-25 -92z"/>
<path d="M10101 7133 c-8 -18 -9 -29 -1 -37 7 -7 10 -5 10 7 0 9 6 17 14 17 7
0 16 9 19 20 8 31 -27 25 -42 -7z"/>
<path d="M9070 7117 c0 -16 3 -17 15 -7 8 7 15 16 15 20 0 3 -7 7 -15 7 -8 0
-15 -9 -15 -20z"/>
<path d="M9212 7080 c0 -14 2 -19 5 -12 2 6 2 18 0 25 -3 6 -5 1 -5 -13z"/>
<path d="M9022 7065 c0 -16 2 -22 5 -12 2 9 2 23 0 30 -3 6 -5 -1 -5 -18z"/>
<path d="M9111 7063 c0 -25 1 -26 9 -8 12 27 12 35 0 35 -5 0 -10 -12 -9 -27z"/>
<path d="M9065 7058 c-10 -31 -9 -51 3 -55 8 -3 12 7 12 31 0 36 -7 47 -15 24z"/>
<path d="M9052 6935 c0 -16 2 -22 5 -12 2 9 2 23 0 30 -3 6 -5 -1 -5 -18z"/>
<path d="M9071 6904 c0 -11 3 -14 6 -6 3 7 2 16 -1 19 -3 4 -6 -2 -5 -13z"/>
<path d="M6051 6844 c0 -11 3 -14 6 -6 3 7 2 16 -1 19 -3 4 -6 -2 -5 -13z"/>
<path d="M9184 6838 c4 -13 11 -45 15 -73 24 -131 62 -235 87 -235 18 0 18 26
0 33 -20 8 -52 99 -71 205 -9 51 -22 92 -27 92 -6 0 -8 -10 -4 -22z"/>
<path d="M7220 6818 c-10 -13 -19 -27 -19 -31 0 -5 -12 -18 -26 -29 -14 -11
-24 -26 -21 -34 3 -8 0 -11 -10 -7 -7 3 -14 0 -14 -6 0 -6 6 -11 14 -11 11 0
52 53 99 127 13 21 -2 15 -23 -9z"/>
<path d="M9111 6814 c0 -11 3 -14 6 -6 3 7 2 16 -1 19 -3 4 -6 -2 -5 -13z"/>
<path d="M6051 6720 c0 -32 2 -40 9 -29 5 9 6 28 0 45 -8 27 -8 26 -9 -16z"/>
<path d="M5876 5826 c3 -8 12 -17 20 -20 12 -4 12 -2 4 14 -12 23 -32 27 -24
6z"/>
</g>
</svg>
