<svg xmlns="http://www.w3.org/2000/svg" viewBox="0 0 410 404"><path fill="#41D1FF" d="M399.641 59.524L215.643 388.545c-3.79 6.743-13.495 6.747-17.29.007L9.32 59.575c-4.161-7.304 2.185-16.227 10.435-14.684l184.143 34.437a10 10 0 0 0 3.675 0l181.615-34.397c8.243-1.562 14.602 7.331 10.453 14.593Z"/><path fill="#BD34FE" d="M292.965.84 156.412 27.634a5 5 0 0 0-4.068 4.156L130.355 176.35a5 5 0 0 0 6.104 5.64l38.002-8.761a5 5 0 0 1 6.064 6.123l-11.29 55.28a5 5 0 0 0 6.08 5.909l23.468-5.719a5 5 0 0 1 6.2 5.62l-17.945 87.35c-1.123 5.468 6.152 8.453 9.146 3.762l1.999-3.128 111.25-221.98a5 5 0 0 0-5.45-7.143l-39.124 7.548a5 5 0 0 1-5.767-6.26l25.52-88.34a5 5 0 0 0-5.637-6.367Z"/></svg>