<svg xmlns="http://www.w3.org/2000/svg" viewBox="0 0 841.9 595.3"><g fill="#61dafb"><path d="M666.3 296.5c0-32.5-40.7-63.3-103.1-85.4 14.4-63.8 8-114.2-20.6-131-6.6-3.8-14.3-5.8-22.4-5.8v23c4.1 0 7.9.9 11.3 2.8 13.8 7.9 19.7 40.5 15.2 83.1-1.1 10.4-2.8 21.3-5 32.5-19.6-4.7-41-8.3-63.9-10.8-13.8-18.9-28.2-36.2-42.9-51.4 33.8-31.4 65.4-48.6 87.8-48.6V82c-29.1 0-66.8 20.7-106.4 58.2-39.6-37.4-77.1-58.2-106.4-58.2v23c22.3 0 53.7 17.1 87.4 48.2-14.6 15.2-29 32.5-42.6 51.3-23 2.5-44.4 6.2-64.1 10.9-2.2-11.2-3.9-22.1-5-32.6-4.6-42.5 1.2-75.1 14.9-83 3.3-1.9 7-2.8 11.1-2.8V74c-8.1 0-15.7 1.9-22.2 5.7-28.6 16.5-35.1 66.7-20.8 130.4-62.1 22.1-102.7 52.9-102.7 85.4 0 32.5 40.7 63.3 103.1 85.4-14.4 63.8-8 114.2 20.6 131 6.6 3.8 14.3 5.8 22.4 5.8 29.2 0 66.8-20.7 106.4-58.2 39.6 37.4 77.1 58.2 106.4 58.2 8.1 0 15.8-1.9 22.4-5.8 28.6-16.5 35-66.7 20.6-130.8 62.3-22.2 103-53 103-85.5zm-130.4 70.6c-5 17.3-11.3 35.3-18.8 53.5-17.2 3.8-35.9 6.7-55.8 8.7 6.4-5.5 12.9-11.3 19.4-17.3 6.5-6 12.8-12.1 18.8-18.4 12.7-1.9 24.9-4.1 36.4-6.5z"/></g></svg>